<?xml version="1.0" standalone="no"?><!DOCTYPE svg PUBLIC "-//W3C//DTD SVG 1.1//EN" "http://www.w3.org/Graphics/SVG/1.1/DTD/svg11.dtd"><svg class="icon" width="200px" height="200.00px" viewBox="0 0 1024 1024" version="1.1" xmlns="http://www.w3.org/2000/svg"><path d="M901.632 926.72c0 12.8-5.12 25.088-14.336 34.304-9.216 9.216-21.504 14.336-34.304 14.336H170.496c-12.8 0-25.6-5.12-34.304-14.336-9.216-9.216-14.336-21.504-14.336-34.304V48.64c0-12.8 5.12-25.6 14.336-34.304C144.896 5.12 157.696 0 170.496 0h418.816c12.8 0 25.6 5.12 34.816 14.336l263.68 263.68c9.216 9.216 14.336 21.504 14.336 34.816V926.72h-0.512z" fill="#EBECF0" /><path d="M901.632 926.72v48.64c0 12.8-5.12 25.6-14.336 34.304-9.216 9.216-21.504 14.336-34.304 14.336H170.496c-27.136 0-48.64-22.016-48.64-48.64V926.72c0 12.8 5.12 25.088 14.336 34.304 9.216 9.216 21.504 14.336 34.304 14.336h682.496c27.136 0 48.64-22.016 48.64-48.64z" fill="#C1C7D0" /><path d="M24.064 536.576h975.36v243.712c0 27.136-22.016 48.64-48.64 48.64H73.216c-12.8 0-25.6-5.12-34.304-14.336-9.216-9.216-14.336-21.504-14.336-34.816v-243.2H24.064z" fill="#EDC20F" /><path d="M121.856 536.576V438.784L24.064 536.576h97.792z m779.776 0l1.024-97.792 97.28 97.792h-98.304z" fill="#C6A517" /><path d="M901.632 312.832v6.656h-263.68c-27.136 0-48.64-22.016-48.64-48.64V0c12.8 0 25.6 5.12 34.816 14.336l264.192 263.68c8.704 9.216 13.824 21.504 13.312 34.816z" fill="#C1C7D0" /><path d="M228.1472 778.8544l67.328-191.488h62.2592l67.328 191.488H364.0832l-7.168-25.344H295.936l-7.424 25.344H228.0448z m79.0528-65.536h38.6048l-19.0976-66.304-19.5072 66.304zM442.624 778.8544v-191.488h78.7968c17.408 0 31.232 1.024 41.4208 3.072s18.688 5.3248 25.5488 9.8304c8.8576 5.9904 15.4112 13.4144 19.7632 22.2208s6.5024 19.3024 6.5024 31.4368c0 21.4016-6.3488 37.7856-18.9952 49.2032s-30.8736 17.1008-54.7328 17.1008h-36.8128v58.624H442.624z m61.4912-105.4208h19.7632c12.8 0 21.4016-1.4336 25.7536-4.3008s6.5024-7.936 6.5024-15.2064-2.0992-12.4928-6.2464-15.36-12.8-4.3008-26.0096-4.3008h-19.7632v39.1168zM639.0784 778.8544v-191.488h153.0368v45.8752h-91.5456v25.4976h77.3632v43.9296h-77.3632v29.6448h95.2832v46.5408h-156.7744z" fill="#FFFFFF" /></svg>