<?xml version="1.0" standalone="no"?><!DOCTYPE svg PUBLIC "-//W3C//DTD SVG 1.1//EN" "http://www.w3.org/Graphics/SVG/1.1/DTD/svg11.dtd"><svg class="icon" width="200px" height="200.00px" viewBox="0 0 1024 1024" version="1.1" xmlns="http://www.w3.org/2000/svg"><path d="M901.632 926.72c0 12.8-5.12 25.088-14.336 34.304-9.216 9.216-21.504 14.336-34.304 14.336H170.496c-12.8 0-25.6-5.12-34.304-14.336-9.216-9.216-14.336-21.504-14.336-34.304V48.64c0-12.8 5.12-25.6 14.336-34.304C144.896 5.12 157.696 0 170.496 0h418.816c12.8 0 25.6 5.12 34.816 14.336l263.68 263.68c9.216 9.216 14.336 21.504 14.336 34.816V926.72h-0.512z" fill="#EBECF0" /><path d="M901.632 926.72v48.64c0 12.8-5.12 25.6-14.336 34.304-9.216 9.216-21.504 14.336-34.304 14.336H170.496c-27.136 0-48.64-22.016-48.64-48.64V926.72c0 12.8 5.12 25.088 14.336 34.304 9.216 9.216 21.504 14.336 34.304 14.336h682.496c27.136 0 48.64-22.016 48.64-48.64z" fill="#C1C7D0" /><path d="M24.064 536.576h975.36v243.712c0 27.136-22.016 48.64-48.64 48.64H73.216c-12.8 0-25.6-5.12-34.304-14.336-9.216-9.216-14.336-21.504-14.336-34.816v-243.2H24.064z" fill="#FF6464" /><path d="M121.856 536.576V438.784L24.064 536.576h97.792z m779.776 0l1.024-97.792 97.28 97.792h-98.304z" fill="#E55151" /><path d="M901.632 312.832v6.656h-263.68c-27.136 0-48.64-22.016-48.64-48.64V0c12.8 0 25.6 5.12 34.816 14.336l264.192 263.68c8.704 9.216 13.824 21.504 13.312 34.816z" fill="#C1C7D0" /><path d="M237.4144 778.8544l67.328-191.488h62.2592l67.328 191.488H373.3504l-7.168-25.344H305.2032l-7.424 25.344H237.312z m79.0528-65.536h38.6048l-19.0976-66.304-19.5072 66.304zM442.9824 719.1552H502.784c1.6384 6.912 4.6592 11.9296 8.96 14.9504 4.352 3.0208 10.8032 4.5568 19.3536 4.5568 7.2192 0 12.8512-1.2288 16.9472-3.6864s6.1952-5.888 6.1952-10.1888c0-6.912-8.6016-12.544-25.856-16.896-3.4816-0.8704-6.0928-1.536-7.936-1.9456-14.1312-3.6352-25.3952-6.9632-33.7408-9.9328s-14.4384-5.7856-18.2784-8.3968c-7.3728-5.2736-12.9024-11.6224-16.5888-18.9952-3.6864-7.3728-5.5296-15.7696-5.5296-25.2416 0-18.9952 7.168-33.8944 21.4528-44.6976 14.2848-10.8544 33.9968-16.2304 59.0336-16.2304s43.9808 5.1712 58.112 15.5136c14.1312 10.3424 22.1184 25.1904 23.9104 44.544h-58.368c-0.9728-5.632-3.4304-9.8304-7.4752-12.5952-4.0448-2.7648-9.7792-4.1472-17.2032-4.1472-6.6048 0-11.4688 1.0752-14.6944 3.2256-3.2256 2.1504-4.8128 5.4784-4.8128 9.8816 0 6.3488 8.3968 11.6224 25.2416 15.872l3.3792 0.9216c2.4064 0.6144 6.0928 1.536 11.0592 2.7136 22.272 5.632 36.8128 10.752 43.6736 15.36 8.4992 5.632 14.6944 12.032 18.5856 19.2512 3.8912 7.2192 5.8368 15.6672 5.8368 25.4976 0 21.1456-7.3728 37.376-22.1696 48.7424-14.7968 11.3664-35.9424 17.0496-63.488 17.0496-25.3952 0-45.5168-5.6832-60.3648-17.0496-14.848-11.3664-23.1936-27.3408-25.0368-47.9744zM641.7408 778.8544v-191.488h144.8448v48.2304h-83.3536v29.6448h66.304v46.2848h-66.304v67.328h-61.4912z" fill="#FFFFFF" /></svg>