<?xml version="1.0" standalone="no"?><!DOCTYPE svg PUBLIC "-//W3C//DTD SVG 1.1//EN" "http://www.w3.org/Graphics/SVG/1.1/DTD/svg11.dtd"><svg class="icon" width="200px" height="200.00px" viewBox="0 0 1024 1024" version="1.1" xmlns="http://www.w3.org/2000/svg"><path d="M901.632 926.72c0 12.8-5.12 25.088-14.336 34.304-9.216 9.216-21.504 14.336-34.304 14.336H170.496c-12.8 0-25.6-5.12-34.304-14.336-9.216-9.216-14.336-21.504-14.336-34.304V48.64c0-12.8 5.12-25.6 14.336-34.304C144.896 5.12 157.696 0 170.496 0h418.816c12.8 0 25.6 5.12 34.816 14.336l263.68 263.68c9.216 9.216 14.336 21.504 14.336 34.816V926.72h-0.512z" fill="#EBECF0" /><path d="M901.632 926.72v48.64c0 12.8-5.12 25.6-14.336 34.304-9.216 9.216-21.504 14.336-34.304 14.336H170.496c-27.136 0-48.64-22.016-48.64-48.64V926.72c0 12.8 5.12 25.088 14.336 34.304 9.216 9.216 21.504 14.336 34.304 14.336h682.496c27.136 0 48.64-22.016 48.64-48.64z" fill="#C1C7D0" /><path d="M24.064 536.576h975.36v243.712c0 27.136-22.016 48.64-48.64 48.64H73.216c-12.8 0-25.6-5.12-34.304-14.336-9.216-9.216-14.336-21.504-14.336-34.816v-243.2H24.064z" fill="#4DC197" /><path d="M121.856 536.576V438.784L24.064 536.576h97.792z m779.776 0l1.024-97.792 97.28 97.792h-98.304z" fill="#379370" /><path d="M901.632 312.832v6.656h-263.68c-27.136 0-48.64-22.016-48.64-48.64V0c12.8 0 25.6 5.12 34.816 14.336l264.192 263.68c8.704 9.216 13.824 21.504 13.312 34.816z" fill="#C1C7D0" /><path d="M170.2912 784.1792v-191.488h74.3424c18.8928 0 32.9728 0.8704 42.1888 2.56s17.2544 4.5056 24.1152 8.3968c13.2608 7.7824 23.2448 18.7904 29.9008 32.8704 6.656 14.1312 10.0352 31.488 10.0352 52.1216 0 21.6576-4.1472 39.8848-12.4416 54.6816-8.2944 14.7968-20.48 25.7536-36.608 32.9728-6.2464 2.8672-14.08 4.9152-23.4496 6.0928-9.4208 1.2288-24.4736 1.8432-45.1584 1.8432H170.2912z m61.4912-48.4864h16.4864c15.36 0 25.9584-3.4304 31.8976-10.2912 5.9392-6.8608 8.9088-19.0976 8.9088-36.8128s-3.0208-29.44-9.1136-36.6592c-6.0928-7.168-16.384-10.8032-30.9248-10.8032h-17.3056v94.5152zM380.1088 784.1792v-191.488h62.6688v191.488H380.1088zM464.4864 592.64h62.9248l32.256 123.648 34.56-123.648h60.4672l-64.4608 191.488H528.9984l-64.4608-191.488zM655.4624 784.1792l65.792-99.584-59.9552-91.904h69.1712l25.6 48.4864 27.9552-48.4864h67.584l-62.0032 91.904 64.1024 99.584h-69.4272l-28.9792-51.8656-29.1328 51.8656h-70.7072z" fill="#FFFFFF" /></svg>