<?xml version="1.0" standalone="no"?><!DOCTYPE svg PUBLIC "-//W3C//DTD SVG 1.1//EN" "http://www.w3.org/Graphics/SVG/1.1/DTD/svg11.dtd"><svg class="icon" width="200px" height="200.00px" viewBox="0 0 1024 1024" version="1.1" xmlns="http://www.w3.org/2000/svg"><path d="M901.632 926.72c0 12.8-5.12 25.088-14.336 34.304-9.216 9.216-21.504 14.336-34.304 14.336H170.496c-12.8 0-25.6-5.12-34.304-14.336-9.216-9.216-14.336-21.504-14.336-34.304V48.64c0-12.8 5.12-25.6 14.336-34.304C144.896 5.12 157.696 0 170.496 0h418.816c12.8 0 25.6 5.12 34.816 14.336l263.68 263.68c9.216 9.216 14.336 21.504 14.336 34.816V926.72h-0.512z" fill="#EBECF0" /><path d="M901.632 926.72v48.64c0 12.8-5.12 25.6-14.336 34.304-9.216 9.216-21.504 14.336-34.304 14.336H170.496c-27.136 0-48.64-22.016-48.64-48.64V926.72c0 12.8 5.12 25.088 14.336 34.304 9.216 9.216 21.504 14.336 34.304 14.336h682.496c27.136 0 48.64-22.016 48.64-48.64z" fill="#C1C7D0" /><path d="M24.064 536.576h975.36v243.712c0 27.136-22.016 48.64-48.64 48.64H73.216c-12.8 0-25.6-5.12-34.304-14.336-9.216-9.216-14.336-21.504-14.336-34.816v-243.2H24.064z" fill="#00D842" /><path d="M121.856 536.576V438.784L24.064 536.576h97.792z m779.776 0l1.024-97.792 97.28 97.792h-98.304z" fill="#00B72F" /><path d="M901.632 312.832v6.656h-263.68c-27.136 0-48.64-22.016-48.64-48.64V0c12.8 0 25.6 5.12 34.816 14.336l264.192 263.68c8.704 9.216 13.824 21.504 13.312 34.816z" fill="#C1C7D0" /><path d="M153.8048 778.8544v-191.488h144.8448v48.2304H215.296v29.6448H281.6v46.2848H215.296v67.328H153.8048zM321.9968 778.8544v-191.488H383.488v140.6464h83.6096v50.8416H321.9968zM473.344 778.8544l67.328-191.488h62.2592l67.328 191.488H609.28l-7.168-25.344h-60.9792l-7.424 25.344H473.2416z m79.0528-65.536h38.6048L571.904 647.0144l-19.5072 66.304zM811.9808 704.6144h58.2656c-1.7408 25.2416-10.5984 44.8-26.6752 58.6752s-37.7344 20.8896-65.1264 20.8896c-30.6688 0-54.8352-9.0112-72.3968-26.9824s-26.368-42.5984-26.368-73.8816 8.704-55.808 26.112-73.8304 41.1648-27.0336 71.2192-27.0336c27.7504 0 49.5616 6.7072 65.4336 20.0704s24.832 32.512 26.7264 57.3952h-58.88c-0.8704-9.7792-4.0448-17.2032-9.472-22.1696s-13.1072-7.4752-22.9888-7.4752c-12.032 0-21.0944 4.4032-27.0848 13.2096s-9.0112 22.0672-9.0112 39.8336 3.2256 30.6176 9.6256 39.5264 15.8208 13.4144 28.2112 13.4144c9.5232 0 17.1008-2.7136 22.6816-8.192s8.8576-13.2608 9.8304-23.3984z" fill="#FFFFFF" /></svg>