<?xml version="1.0" standalone="no"?><!DOCTYPE svg PUBLIC "-//W3C//DTD SVG 1.1//EN" "http://www.w3.org/Graphics/SVG/1.1/DTD/svg11.dtd"><svg class="icon" width="200px" height="200.00px" viewBox="0 0 1024 1024" version="1.1" xmlns="http://www.w3.org/2000/svg"><path d="M901.632 926.72c0 12.8-5.12 25.088-14.336 34.304-9.216 9.216-21.504 14.336-34.304 14.336H170.496c-12.8 0-25.6-5.12-34.304-14.336-9.216-9.216-14.336-21.504-14.336-34.304V48.64c0-12.8 5.12-25.6 14.336-34.304C144.896 5.12 157.696 0 170.496 0h418.816c12.8 0 25.6 5.12 34.816 14.336l263.68 263.68c9.216 9.216 14.336 21.504 14.336 34.816V926.72h-0.512z" fill="#EBECF0" /><path d="M901.632 926.72v48.64c0 12.8-5.12 25.6-14.336 34.304-9.216 9.216-21.504 14.336-34.304 14.336H170.496c-27.136 0-48.64-22.016-48.64-48.64V926.72c0 12.8 5.12 25.088 14.336 34.304 9.216 9.216 21.504 14.336 34.304 14.336h682.496c27.136 0 48.64-22.016 48.64-48.64z" fill="#C1C7D0" /><path d="M24.064 536.576h975.36v243.712c0 27.136-22.016 48.64-48.64 48.64H73.216c-12.8 0-25.6-5.12-34.304-14.336-9.216-9.216-14.336-21.504-14.336-34.816v-243.2H24.064z" fill="#CCC42B" /><path d="M121.856 536.576V438.784L24.064 536.576h97.792z m779.776 0l1.024-97.792 97.28 97.792h-98.304z" fill="#BFAE0C" /><path d="M901.632 312.832v6.656h-263.68c-27.136 0-48.64-22.016-48.64-48.64V0c12.8 0 25.6 5.12 34.816 14.336l264.192 263.68c8.704 9.216 13.824 21.504 13.312 34.816z" fill="#C1C7D0" /><path d="M244.992 778.8544H189.3376v-191.488H264.192l26.5216 95.5392c0.3584 1.28 1.024 4.2496 2.0992 8.9088 1.024 4.6592 2.5088 11.008 4.4032 19.2 1.2288-6.4 2.3552-12.032 3.3792-16.8448s1.9456-8.448 2.7136-10.8544l27.1872-95.9488h74.752v191.488H349.5936l0.512-94.2592c0-5.7344 0-11.264 0.0512-16.6912 0-5.4272 0.1024-11.008 0.2048-16.8448-2.0992 9.8816-4.608 20.6848-7.5264 32.3584l-0.4096 1.6896-23.6544 93.7472h-42.9056l-23.9104-91.648c-1.1264-4.1472-2.2528-8.9088-3.3792-14.2848-1.1264-5.376-2.6112-12.6464-4.4032-21.8624 0.256 8.2432 0.4608 15.3088 0.5632 21.1968 0.1536 5.888 0.2048 10.5984 0.2048 14.1824v92.416zM433.2032 683.264c0-31.1808 8.9088-55.808 26.7264-73.8304 17.8176-18.0224 42.0864-27.0336 72.8576-27.0336s54.8864 9.0112 72.6528 27.0336c17.7664 18.0224 26.6752 42.6496 26.6752 73.8304s-8.9088 55.7056-26.6752 73.7792-41.984 27.0848-72.6528 27.0848-55.04-9.0112-72.8576-27.0848-26.7264-42.6496-26.7264-73.7792z m62.0032 0c0 18.1248 3.0208 31.4368 9.1136 39.8848 6.0416 8.4992 15.5648 12.7488 28.4672 12.7488s22.2208-4.2496 28.2112-12.6976 8.96-21.76 8.96-39.9872-2.9696-31.6416-8.96-40.0896-15.36-12.6976-28.2112-12.6976-22.4256 4.2496-28.4672 12.7488c-6.0416 8.4992-9.1136 21.8624-9.1136 40.0384zM644.4544 587.3664h62.9248l32.256 123.648 34.56-123.648h60.4672l-64.4608 191.488h-61.2352l-64.4608-191.488z" fill="#FFFFFF" /></svg>