<?xml version="1.0" standalone="no"?><!DOCTYPE svg PUBLIC "-//W3C//DTD SVG 1.1//EN" "http://www.w3.org/Graphics/SVG/1.1/DTD/svg11.dtd"><svg class="icon" width="200px" height="200.00px" viewBox="0 0 1024 1024" version="1.1" xmlns="http://www.w3.org/2000/svg"><path d="M901.632 926.72c0 12.8-5.12 25.088-14.336 34.304-9.216 9.216-21.504 14.336-34.304 14.336H170.496c-12.8 0-25.6-5.12-34.304-14.336-9.216-9.216-14.336-21.504-14.336-34.304V48.64c0-12.8 5.12-25.6 14.336-34.304C144.896 5.12 157.696 0 170.496 0h418.816c12.8 0 25.6 5.12 34.816 14.336l263.68 263.68c9.216 9.216 14.336 21.504 14.336 34.816V926.72h-0.512z" fill="#EBECF0" /><path d="M901.632 926.72v48.64c0 12.8-5.12 25.6-14.336 34.304-9.216 9.216-21.504 14.336-34.304 14.336H170.496c-27.136 0-48.64-22.016-48.64-48.64V926.72c0 12.8 5.12 25.088 14.336 34.304 9.216 9.216 21.504 14.336 34.304 14.336h682.496c27.136 0 48.64-22.016 48.64-48.64z" fill="#C1C7D0" /><path d="M24.064 536.576h975.36v243.712c0 27.136-22.016 48.64-48.64 48.64H73.216c-12.8 0-25.6-5.12-34.304-14.336-9.216-9.216-14.336-21.504-14.336-34.816v-243.2H24.064z" fill="#84A3D8" /><path d="M121.856 536.576V438.784L24.064 536.576h97.792z m779.776 0l1.024-97.792 97.28 97.792h-98.304z" fill="#59739B" /><path d="M901.632 312.832v6.656h-263.68c-27.136 0-48.64-22.016-48.64-48.64V0c12.8 0 25.6 5.12 34.816 14.336l264.192 263.68c8.704 9.216 13.824 21.504 13.312 34.816z" fill="#C1C7D0" /><path d="M302.4384 778.8544v-191.488h91.648c28.672 0 49.152 4.3008 61.44 12.8512s18.3808 22.6816 18.3808 42.24c0 11.7248-2.5088 21.4016-7.5264 29.1328-5.0176 7.7312-12.8 13.824-23.2448 18.3296 10.6496 2.2528 18.432 6.7072 23.2448 13.312s7.4752 16.384 7.7824 29.184l1.024 26.6752s0 0.4096 0.1536 0.6656c0.256 7.6288 2.0992 11.6224 5.4784 11.9808v7.168H418.816c-1.1264-4.608-1.9456-8.6016-2.56-12.032-0.5632-3.4304-0.8704-6.0928-0.8704-7.9872v-19.0976c0-9.8816-1.9456-16.8448-5.8368-20.8896s-10.6496-6.0416-20.2752-6.0416h-26.112v66.048H302.4384z m60.7232-109.2096h27.9552c9.7792 0 16.5376-1.3312 20.2752-3.9424 3.7376-2.6624 5.5808-7.2704 5.5808-13.824s-1.8432-11.4688-5.5808-14.08c-3.7376-2.6624-11.008-3.9424-21.8624-3.9424h-26.368v35.8912zM561.2544 778.8544H505.6v-191.488h74.8544l26.5216 95.5392c0.3584 1.28 1.024 4.2496 2.0992 8.9088 1.024 4.6592 2.5088 11.008 4.4032 19.2 1.2288-6.4 2.3552-12.032 3.3792-16.8448s1.9456-8.448 2.7136-10.8544l27.1872-95.9488h74.752v191.488h-55.6544l0.512-94.2592c0-5.7344 0-11.264 0.0512-16.6912 0-5.4272 0.1024-11.008 0.2048-16.8448-2.0992 9.8816-4.608 20.6848-7.5264 32.3584l-0.4096 1.6896-23.6544 93.7472h-42.9056l-23.9104-91.648c-1.1264-4.1472-2.2528-8.9088-3.3792-14.2848-1.1264-5.376-2.6112-12.6464-4.4032-21.8624 0.256 8.2432 0.4608 15.3088 0.5632 21.1968 0.1536 5.888 0.2048 10.5984 0.2048 14.1824v92.416z" fill="#FFFFFF" /></svg>