<?xml version="1.0" standalone="no"?><!DOCTYPE svg PUBLIC "-//W3C//DTD SVG 1.1//EN" "http://www.w3.org/Graphics/SVG/1.1/DTD/svg11.dtd"><svg class="icon" width="200px" height="200.00px" viewBox="0 0 1024 1024" version="1.1" xmlns="http://www.w3.org/2000/svg"><path d="M901.63125 926.725c0 12.8-5.125 25.0875-14.3375 34.3-9.225 9.2125-21.5 14.3375-34.3125 14.3375H170.49375c-12.8 0-25.6-5.125-34.3-14.3375-9.2125-9.225-14.3375-21.5-14.3375-34.3V48.6375c0-12.8 5.1125-25.6 14.3375-34.3C144.89375 5.125 157.70625 0 170.49375 0H589.31875c12.8 0 25.6 5.125 34.8125 14.3375l263.675 263.6875c9.2125 9.2125 14.3375 21.5 14.3375 34.8125v613.8875h-0.5125z" fill="#EBECF0" /><path d="M901.63125 926.725v48.6375c0 12.8-5.125 25.6-14.3375 34.3-9.225 9.225-21.5 14.3375-34.3125 14.3375H170.49375c-27.1375 0-48.6375-22.0125-48.6375-48.6375v-48.6375c0 12.8 5.1125 25.0875 14.3375 34.3 9.2125 9.2125 21.5 14.3375 34.3 14.3375h682.5c27.1375 0 48.6375-22.0125 48.6375-48.6375z" fill="#C1C7D0" /><path d="M24.06875 536.575h975.3625v243.7125c0 27.1375-22.0125 48.6375-48.6375 48.6375H73.21875c-12.8 0-25.6-5.1125-34.3-14.3375C29.69375 805.375 24.58125 793.0875 24.58125 779.775V536.575H24.06875z" fill="#155DFF" /><path d="M121.85625 536.575v-97.8L24.06875 536.575h97.7875z m779.775 0l1.025-97.8 97.275 97.8h-98.3z" fill="#6477FF" /><path d="M901.63125 312.8375v6.65H637.94375c-27.1375 0-48.6375-22.0125-48.6375-48.6375V0c12.8 0 25.6 5.125 34.8125 14.3375L888.31875 278.025c8.7 9.2125 13.825 21.5 13.3125 34.8125z" fill="#C1C7D0" /><path d="M182.98125 587.525h53.025l22.9625 141.0375 23.2375-135.575h63.1375l22.9625 136.9375 22.6875-142.4125h53.025l-35.5375 191.3375h-73.525l-21.325-124.1-21.6 124.1h-73.25l-35.8125-191.3375zM514.74375 744.15l-10.6625 34.7125h-54.125l63.6875-191.3375h67.2375l60.1375 191.3375h-54.125l-9.8375-34.7125h-62.325z m49.475-44.275l-17.4875-60.95-18.5875 60.95h36.075zM651.31875 587.525h53.85l41 143.5 41-143.5h53.85l-58.225 191.3375h-73.25L651.31875 587.525z" fill="#FFFFFF" /></svg>